<svg xmlns="http://www.w3.org/2000/svg" width="395.703" height="289.269" viewBox="0 0 395.703 289.269">
  <g id="Group" transform="translate(-0.043 -5.731)">
    <g id="Background_40" data-name="Background / 40" transform="translate(198.476 5.731)">
      <g id="Web_page" data-name="Web page" transform="translate(0 23.226)">
        <g id="Browser">
          <g id="Background" transform="translate(0 2.715)">
            <rect id="Background-2" data-name="Background" width="197.27" height="227.735" rx="6" fill="#f2f6fb"/>
          </g>
          <g id="Input_Form" data-name="Input Form" transform="translate(13.875 26.846)">
            <path id="Placeholder" d="M160.581,49.167v-1.81h7.127a.3.3,0,0,0,.3-.3V31.3h1.81V47.055a2.111,2.111,0,0,1-2.114,2.111Zm-28.354,0v-1.81h24.734v1.81Zm-28.354,0v-1.81h24.734v1.81Zm-28.354,0v-1.81h24.734v1.81Zm-28.354,0v-1.81H71.9v1.81Zm-28.354,0v-1.81H43.546v1.81Zm-16.7,0A2.112,2.112,0,0,1,0,47.055V37.248H1.81v9.807a.3.3,0,0,0,.3.3H15.192v1.81ZM0,33.629V8.895H1.81V33.629Zm168.011-5.951V2.943h1.81V27.677ZM0,5.275V2.111H1.81V5.275ZM0,2.111A2.111,2.111,0,0,1,2.114,0H25V1.81H2.114a.3.3,0,0,0-.3.3Zm142.034-.3V0h24.734V1.81Zm-28.354,0V0h24.734V1.81Zm-28.354,0V0H110.06V1.81Zm-28.354,0V0H81.707V1.81Zm-28.354,0V0H53.353V1.81Z" transform="translate(0)" fill="#d8deed"/>
          </g>
          <path id="Top_bar" data-name="Top bar" d="M13.272,0H184A13.272,13.272,0,0,1,197.27,13.272v0a0,0,0,0,1,0,0H0a0,0,0,0,1,0,0v0A13.272,13.272,0,0,1,13.272,0Z" fill="#d8deed"/>
          <circle id="Burron" cx="2.866" cy="2.866" r="2.866" transform="translate(6.033 3.921)" fill="#ff5645"/>
          <circle id="Burron-2" data-name="Burron" cx="2.866" cy="2.866" r="2.866" transform="translate(15.383 3.921)" fill="#ffcb3d"/>
          <circle id="Burron-3" data-name="Burron" cx="2.866" cy="2.866" r="2.866" transform="translate(25.036 3.921)" fill="#3abf7c"/>
        </g>
        <g id="Image" transform="translate(13.875 87.776)">
          <g id="Image-2" data-name="Image" transform="translate(0)">
            <g id="Image_1" data-name="Image 1">
              <path id="Combined_Shape" data-name="Combined Shape" d="M86.156,127.291a2,2,0,0,1-2-2v-4.446a2,2,0,0,1,2-2h55.12a2,2,0,0,1,2,2v4.446a2,2,0,0,1-2,2Zm0-13.875a2,2,0,0,1-2-2V106.97a2,2,0,0,1,2-2h80.458a2,2,0,0,1,2,2v4.446a2,2,0,0,1-2,2ZM2,113.415a2,2,0,0,1-2-2V106.97a2,2,0,0,1,2-2H35.4a2,2,0,0,1,2,2v4.446a2,2,0,0,1-2,2ZM86.156,99.54a2,2,0,0,1-2-2V93.094a2,2,0,0,1,2-2h72.013a2,2,0,0,1,2,2V97.54a2,2,0,0,1-2,2ZM2,99.54a2,2,0,0,1-2-2V93.094a2,2,0,0,1,2-2H54.1a2,2,0,0,1,2,2V97.54a2,2,0,0,1-2,2ZM86.156,85.363a2,2,0,0,1-2-2V78.917a2,2,0,0,1,2-2h63.567a2,2,0,0,1,2,2v4.446a2,2,0,0,1-2,2ZM2,85.363a2,2,0,0,1-2-2V78.917a2,2,0,0,1,2-2H44.753a2,2,0,0,1,2,2v4.446a2,2,0,0,1-2,2ZM86.184,71.653a2,2,0,0,1-2-2V65.1a2,2,0,0,1,2-2h80.458a2,2,0,0,1,2,2v4.556a2,2,0,0,1-2,2ZM2,71.488a2,2,0,0,1-2-2V65.042a2,2,0,0,1,2-2H63.455a2,2,0,0,1,2,2v4.446a2,2,0,0,1-2,2ZM4.028,53.472a4,4,0,0,1-4-4V4a4,4,0,0,1,4-4H164.642a4,4,0,0,1,4,4V49.472a4,4,0,0,1-4,4Z" fill="#e1e5f0"/>
              <g id="Icons_Mountains" data-name="Icons / Mountains" transform="translate(69.631 17.111)">
                <path id="Mountains" d="M.6,20.265a.6.6,0,0,1-.512-.922L10.49,2.648a.6.6,0,0,1,1.017-.011L19.13,14.294l2.838-4.565A.6.6,0,0,1,22.977,9.7l6.443,9.357a.6.6,0,0,1-.478.945l-6.463.2h-.012l-.7-.094.032.151Zm19.6-17.749A2.494,2.494,0,1,1,22.7,5.031,2.5,2.5,0,0,1,20.207,2.516Z" transform="translate(0 0)" fill="#fff"/>
              </g>
            </g>
          </g>
        </g>
      </g>
    </g>
    <g id="Woman_stands_7" data-name="Woman stands / 7" transform="translate(0.043 9.787)">
      <g id="Woman" transform="translate(0 0)">
        <path id="Base" d="M96.674,2.714a1.357,1.357,0,1,1,0-2.714h51.278a1.357,1.357,0,0,1,0,2.714Zm-95.317,0A1.357,1.357,0,0,1,1.357,0H32.125a1.357,1.357,0,1,1,0,2.714Z" transform="translate(42.488 282.499)" fill="#ffcb3d"/>
        <path id="Shoes" d="M31.389,19.358h0A1.359,1.359,0,0,0,31,19.3H.234a1.372,1.372,0,0,0-.234.02L7.286.619l21.6,2.926,2.506,15.811Zm63.9-.032h0L97.716,0H120.4l5.4,3.982A28.759,28.759,0,0,0,129.84,7.33a24.1,24.1,0,0,0,5.425,2.655c1.426.546,3.043,1.165,5.314,2.262a41.423,41.423,0,0,1,4.223,2.323,7.135,7.135,0,0,1,2.2,3.258,2.922,2.922,0,0,1,.066.462c.007.082.014.158.024.231a2.943,2.943,0,0,1-.11.79,1.38,1.38,0,0,0-.155-.009H95.551a1.37,1.37,0,0,0-.257.024Z" transform="translate(43.61 263.197)" fill="#474961"/>
        <path id="Skirt" d="M5.179,119.555s-5.953-10-5.095-16.009c.325-2.276.861-5.113,1.4-7.76L1.079,95.7S11.53,34.746,17.015,22.644,29.943,5.5,29.943,5.5C34.678.109,43.029.41,54.582.071c.293-.014.627-.011.92-.024,11.945-.2,9.958.255,13.112,1.23,22.7,6.063,37.661,76.581,37.661,76.581l3.17,15.4a5.2,5.2,0,0,0-.5-.951,4.769,4.769,0,0,1,.488,1.79s.479,9.869-15.318,15.468c-6.434,2.281-19.026,8.558-39.729,10.538-3.409.326-8.345.447-13.789.447C24.982,120.549,5.179,119.555,5.179,119.555Z" transform="translate(63.677 87.548)" fill="#4d64df"/>
        <path id="Shadow_Skirt" data-name="Shadow Skirt" d="M40.6,32.565c-15.436,0-35.218-.984-35.416-.994h0A54.012,54.012,0,0,1,2.31,25.82,34.775,34.775,0,0,1,.518,20.6a13.612,13.612,0,0,1-.434-5.037C.364,13.6.831,11.015,1.47,7.881c1.535.322,7.152,1.455,15,2.526,4.5.614,8.961,1.1,13.26,1.446,5.259.423,10.317.637,15.033.637A115.987,115.987,0,0,0,63.51,11.114a67.541,67.541,0,0,0,8.582-1.967,43.9,43.9,0,0,0,7.564-3.041C87.386,2.054,93.951,0,99.168,0a13.506,13.506,0,0,1,6.8,1.6,8.792,8.792,0,0,1,3,2.764,4.8,4.8,0,0,1,.469,1.749,7.474,7.474,0,0,1-.172,1.629,13.064,13.064,0,0,1-1.563,4,18.225,18.225,0,0,1-4.525,5.055,31.785,31.785,0,0,1-9.058,4.779c-1.106.392-2.387.9-3.87,1.487a147.519,147.519,0,0,1-14.173,4.97c-3.228.928-6.543,1.727-9.852,2.373-3.842.751-7.824,1.326-11.834,1.709C51.284,32.414,46.645,32.565,40.6,32.565Z" transform="translate(63.677 175.532)" fill="#444" opacity="0.177"/>
        <path id="T-shirt" d="M23.552,54.078A9.954,9.954,0,0,1,13.6,44.013l.178-16.036L5.643,26.834c-1.673-.235-4.229-.9-5.232-2.868-1.461-2.825,1.213-6.683,4.2-11.015a32.2,32.2,0,0,1,9.257-9.512C19.761-.731,23.4-.892,26.042,1.79L26.3,3.219a14.519,14.519,0,0,1,2.845-.238l6.636.121c8.416.09,15.112,7.3,14.991,16.017v.543l-.181,16.8-.163,7.868a9.954,9.954,0,0,1-9.952,9.748Z" transform="translate(83.473 35.729)" fill="#fd9d3a"/>
        <rect id="Placeholder-2" data-name="Placeholder" width="234.07" height="79.632" rx="10" transform="translate(4.168 60.133) rotate(3)" fill="#e1e5f0"/>
        <rect id="Input_Field" data-name="Input Field" width="144.785" height="16.892" rx="4" transform="translate(15.017 83.657) rotate(3)" fill="#fff"/>
        <path id="Skin" d="M21.6,258.61,0,255.684l13.859-80.569.069,0-.015.09c.03.007,3.563.771,9.038,1.658,3.238.524,6.53.992,9.785,1.39,4.068.5,8.089.888,11.95,1.159L21.6,258.61h0Zm91.516-3.545h0Zm-22.683,0,.393-64.761-6.066-13.723a44.039,44.039,0,0,0,7.68-3.076c7.73-4.051,14.295-6.105,19.512-6.105a14.429,14.429,0,0,1,5.716,1.059,9.548,9.548,0,0,1,3.186,2.183,50.392,50.392,0,0,1,2.577,9.421,27.422,27.422,0,0,1,.129,8.71c-3.692,22.685-10.376,65.858-10.444,66.292H90.43Zm.925-151.511a12.633,12.633,0,0,1-4.143-.7L73.19,98l0-.045,0-.054A155.24,155.24,0,0,1,52.32,93.853a64.105,64.105,0,0,1-11.4-4.186,27.023,27.023,0,0,1-4.442-2.731,12.951,12.951,0,0,1-3.03-3.193C28.522,76,31.83,61.1,34.241,52.917A8.483,8.483,0,0,0,38.3,54.407l18.128,2.547-4.379,17.14,27.17,9.714c.119.025.793.3,2,.8,5.417,1.593,18.544,5.667,23.442,9.08l-2.717,4.141a12.671,12.671,0,0,1-10.594,5.72Zm10.732-43.712,0,0a25.955,25.955,0,0,1,3.889-3.12,21.586,21.586,0,0,1,4.119-2.148,13.778,13.778,0,0,1,4.9-.976,10.455,10.455,0,0,1,3.522.6,11.413,11.413,0,0,1,3.5,2.043,6.544,6.544,0,0,1,1.487,1.631,1.446,1.446,0,0,1,.2,1.222c-.435,1.195-3.061,1.8-7.8,1.8A121.869,121.869,0,0,1,102.087,59.842ZM60.486,31.1a.6.6,0,0,1-.443-.712l1.99-9.258.1.029a25.718,25.718,0,0,0-2.07-3.715C58.954,16.382,58.075,9.8,63.035,10.2a3.681,3.681,0,0,1,1.59.409l.033.027a.955.955,0,0,0,.592.15.936.936,0,0,0,.868-.971l-.553-7.858a.864.864,0,0,1,.809-.965A15.444,15.444,0,0,0,69.642.345c.15-.016.267-.058.387-.071,1.067-.234,6.819-1.2,10.39,2.76A13.948,13.948,0,0,1,81.3,4.215a6.8,6.8,0,0,1,1.062,3.467l.244,5.494c0,.546-.007,1.093-.067,1.675-.731,6.9-3.3,11.9-5.862,12.323a13.579,13.579,0,0,1-1.729.113,11.987,11.987,0,0,1-2.255-.21c-.169-.063-.061-.011-1.946-.552l-.387,4.926a.6.6,0,0,1-.521.551l-3.753.506Z" transform="translate(50.896 8.131)" fill="#f2a98a"/>
        <path id="Hair" d="M22.569,31.509l-2.716-.732a5.408,5.408,0,0,1-2.01-1.637,13,13,0,0,1-1.774-2.85,23.155,23.155,0,0,1-1.428-4.08,5.185,5.185,0,0,1-2.683.546C6.042,22.2,2.032,17.006.448,11.926S1.647,4.239,6.1,1.4,15.645.581,19.893,2.778c2.942,1.522,3.963,4.81,4.312,6.688.688-.062,1.444-.139,2.3-.251a26.762,26.762,0,0,0,2.641-.484c.348-.074.742-.158,1.17-.247.079-.008.349-.07.609-.129.231-.052.448-.1.505-.108a11.376,11.376,0,0,1,2.326-.221,11.665,11.665,0,0,1,3.778.6,9.216,9.216,0,0,1,3.919,2.566c0,.02-.053.032-.151.056a10.764,10.764,0,0,0-3.5,1.739c-1.383.918-2.763,3.243-4.1,5.491a37.713,37.713,0,0,1-2.385,3.707,6.633,6.633,0,0,1-1.155,1.207,1.872,1.872,0,0,1-1.123.456l-.063,0a.593.593,0,0,0-.207.113l.144-.137-1.662-3.4a4.516,4.516,0,0,0-1.6-1.622,3.644,3.644,0,0,0-1.59-.409,3.316,3.316,0,0,0-2.048.856,4.2,4.2,0,0,0-1.293,1.982,4.269,4.269,0,0,0,0,2.278,3.964,3.964,0,0,0,1.193,1.9,4.5,4.5,0,0,0,2.7,1.172l1.227-.153-.151.135-3.137,4.948h0Zm14.252-11c-1.442-.152-.21-1.13,1.074-1.326a2.065,2.065,0,0,1,1.427.3.4.4,0,0,1-.111.679,5.855,5.855,0,0,1-1.915.374A3.376,3.376,0,0,1,36.821,20.5Zm5.112-.416c-1.492-.056-.333-1.148.911-1.43a2.037,2.037,0,0,1,1.475.179.367.367,0,0,1-.021.669,5.579,5.579,0,0,1-2.259.584Z" transform="translate(89.895 0)" fill="#482d1f"/>
        <path id="Eyes" d="M.291,2.956c-.338-.328-.306-1.181-.27-1.7A.717.717,0,0,1,.675.55a.607.607,0,0,1,.6.513c.266.822-.3,2.015-.757,2.015A.289.289,0,0,1,.291,2.956Zm4.947-.55a2.965,2.965,0,0,1-.27-1.7A.717.717,0,0,1,5.622,0a.607.607,0,0,1,.6.513c.266.821-.323,2.016-.766,2.016A.27.27,0,0,1,5.238,2.406Z" transform="translate(127.133 21.114)" fill="#482d1f"/>
        <path id="Path" d="M2.672.342a.3.3,0,1,0-.6-.081l-.241,1.78,0,.038-.03,3.2a.089.089,0,0,1-.079.063q-.54-.06-1.389-.146a.3.3,0,1,0-.061.6q.863.087,1.4.148l.033,0a.694.694,0,0,0,.69-.584l0-.047L2.433,2.1Z" transform="matrix(0.995, -0.105, 0.105, 0.995, 129.137, 21.221)" fill="#482d1f"/>
        <path id="Path-2" data-name="Path" d="M.913.845C.7.814.159.694.039.362.039.3-.022.211.008.151.1,0,1.034,0,1.034,0,2.271.03,2.572-.03,2.663.121c.03.09.03.211-.181.483C2.21,1.116,1.245.9.913.845Z" transform="matrix(0.995, -0.105, 0.105, 0.995, 129.024, 28.694)" fill="#482d1f"/>
        <rect id="Button" width="53.088" height="16.892" rx="8.446" transform="translate(171.652 91.866) rotate(3)" fill="#4d64df"/>
        <path id="Title" d="M2,0H86.379a2,2,0,0,1,2,2V7.652a2,2,0,0,1-2,2H2a2,2,0,0,1-2-2V2A2,2,0,0,1,2,0Z" transform="translate(45.821 116.621) rotate(3)" fill="#f2f6fb"/>
        <path id="Title-2" data-name="Title" d="M2,0H48.675a2,2,0,0,1,2,2V7.652a2,2,0,0,1-2,2H2a2,2,0,0,1-2-2V2A2,2,0,0,1,2,0Z" transform="translate(139.83 121.763) rotate(3)" fill="#f2f6fb"/>
        <path id="Fingers" d="M8.557,13.319a.453.453,0,0,0,.339-.543c-.354-1.529-.667-2.708-1.392-5.328S6.471,3.671,6.121,2.158a.452.452,0,1,0-.881.2c.354,1.529.667,2.708,1.392,5.327s1.033,3.778,1.383,5.29a.452.452,0,0,0,.543.339Zm-4.778-.85a.452.452,0,0,0,.3-.563C3.6,10.266,3.245,8.985,2.489,6.128S1.378,1.976.886.324A.452.452,0,0,0,.019.582C.507,2.222.857,3.5,1.614,6.36s1.111,4.152,1.6,5.8a.452.452,0,0,0,.563.3Z" transform="matrix(-0.574, 0.819, -0.819, -0.574, 156.435, 107.29)" fill="#482d1f"/>
        <path id="Shadow" d="M.877,13.885Q4.29,4.576,4.844.514a.452.452,0,0,0-.9-.122Q3.409,4.341.028,13.573a.452.452,0,1,0,.85.311Z" transform="translate(110.506 50.691)" fill="#482d1f"/>
      </g>
    </g>
  </g>
</svg>
