<svg xmlns="http://www.w3.org/2000/svg" xmlns:xlink="http://www.w3.org/1999/xlink" width="326.581" height="258" viewBox="0 0 326.581 258">
  <defs>
    <clipPath id="clip-path">
      <path id="Skin" d="M57.77,75.582c.035-.179-.294-.476-.977-.883a42.525,42.525,0,0,0-4.73-2.24c-3.986-1.679-8.051-3.1-10.759-4s-4.615-1.462-4.968-1.565l-.009,0-.071-5.216-.774.247q.875-.28,1.744-.563c4.365-1.421,8.662-2.872,13.326-4.487,1.571-.528,2.246-.794,3.374-1.22,3.677-1.4,17.515-6.784,18.182-7.3,2.332-.952.957-9.223,1.009-12.235,0,0-5.8,2.43-15.929,6.2a10.941,10.941,0,0,0-3.07,2.305c-1.142.066-10.28,1.492-18.7,2.751l.676-.1a22.32,22.32,0,0,0-.251-3.16A22.013,22.013,0,0,0,34.1,38.263a14.769,14.769,0,0,1,.049,5.831l-.7,3.577c-4.931.73-9.363,1.357-11.443,1.557-.167-.512-2.562-12.067-2.562-12.067L3.363,41.383S3.856,44.7,5.821,52.029,8.5,64.821,13.944,66.512c1.269.4,2.924.367,6.611-.457,3.47-.775,6.7-1.638,9.8-2.553L27.995,75.6h-.011l.006.036h0l29.452.1h0C57.453,75.74,57.741,75.731,57.77,75.582ZM11.414,34.666c5.558-1.863,5.767-8.7,5.767-8.7a16.108,16.108,0,0,0-10.141.622A13.025,13.025,0,0,0,0,33.872a19.213,19.213,0,0,0,6.853,1.454l.279,0A13.46,13.46,0,0,0,11.414,34.666Zm13.86-12.431.351.137a24.129,24.129,0,0,0,2.282.886,11.319,11.319,0,0,0,3.41.4c2.255-.161,4.886-4.269,6.067-10.2a13.341,13.341,0,0,0,.188-1.45L37.787,7.2a5.851,5.851,0,0,0-.671-3.087,6.707,6.707,0,0,0-.671-1.074C33.679-.663,28.578.008,27.665.115c-.108,0-.215.027-.322.027a10.508,10.508,0,0,1-2.9.027.821.821,0,0,0-.806.779L23.5,7.821c-.027.644-1.861-.858-2.586-.912C19.63,6.8,18.188,8.787,17.705,10.1a3.76,3.76,0,0,0,.725,3.812c.052.057.106.112.159.164-.221,1.9-1,8.586-1.06,8.661s7.269,1.7,7.269,1.7Z" transform="translate(0 46.239) rotate(-39)" fill="#db9e75"/>
    </clipPath>
  </defs>
  <g id="Group_323" data-name="Group 323" transform="translate(-872.181 -130)">
    <g id="Background_26" data-name="Background / 26" transform="translate(958.078 130)">
      <g id="Web_design" data-name="Web design">
        <rect id="Background" width="153.565" height="225.784" rx="5" fill="#f2f6fb"/>
        <ellipse id="Burron" cx="2.55" cy="2.282" rx="2.55" ry="2.282" transform="translate(6.98 6.182)" fill="#ff5645"/>
        <ellipse id="Burron-2" data-name="Burron" cx="2.416" cy="2.282" rx="2.416" ry="2.282" transform="translate(15.571 6.182)" fill="#ffcb3d"/>
        <circle id="Burron-3" data-name="Burron" cx="2.282" cy="2.282" r="2.282" transform="translate(23.894 6.182)" fill="#3abf7c"/>
        <path id="Combined_Shape" data-name="Combined Shape" d="M75.682,208.081a4,4,0,0,1-4-4V191.117a4,4,0,0,1,4-4h56.165a4,4,0,0,1,4,4v12.964a4,4,0,0,1-4,4ZM4,208.081a4,4,0,0,1-4-4V191.117a4,4,0,0,1,4-4H60.164a4,4,0,0,1,4,4v12.964a4,4,0,0,1-4,4Zm.537-27.843a4,4,0,0,1-4-4V95a4,4,0,0,1,4-4h127.31a4,4,0,0,1,4,4v81.234a4,4,0,0,1-4,4Zm35.586-103.1a2,2,0,0,1-2-2V73.494a2,2,0,0,1,2-2H96.26a2,2,0,0,1,2,2v1.644a2,2,0,0,1-2,2ZM29.384,68a2,2,0,0,1-2-2V64.355a2,2,0,0,1,2-2h77.078a2,2,0,0,1,2,2V66a2,2,0,0,1-2,2ZM125.779,4.564a2.282,2.282,0,1,1,0-4.564h9.933a2.282,2.282,0,0,1,0,4.564Zm-17.719,0a2.282,2.282,0,1,1,0-4.564h9.665a2.282,2.282,0,0,1,0,4.564Zm-50.473,0a2.282,2.282,0,0,1,0-4.564H78.528a2.282,2.282,0,0,1,0,4.564Z" transform="translate(8.86 6.182)" fill="#e1e5f0"/>
        <ellipse id="Oval_2" data-name="Oval 2" cx="7.098" cy="7.127" rx="7.098" ry="7.127" transform="translate(92.492 113.026)" fill="#f2f6fb"/>
        <path id="Object" d="M62.573,144.389l-6.821-2.447-1.023,2.4H4.571A4.564,4.564,0,0,1,.7,137.362L25.2,98.2a4.564,4.564,0,0,1,7.684-.085l19.257,29.316,6.153-9.856a4.027,4.027,0,0,1,6.768-.1l13.757,20.653a4.027,4.027,0,0,1-3.352,6.26ZM39.631,35.7h0V34.627h0a16.813,16.813,0,0,0,4.371-.576l.279,1.037a17.9,17.9,0,0,1-4.654.613Zm-3.782-.4A17.74,17.74,0,0,1,31.43,33.71l.494-.954a16.66,16.66,0,0,0,4.151,1.493L35.849,35.3h0Zm12.769-2.022-.541-.927a16.854,16.854,0,0,0,3.487-2.706l.764.755a17.914,17.914,0,0,1-3.709,2.878h0ZM27.581,31.021a17.927,17.927,0,0,1-3.019-3.6l.906-.577a16.849,16.849,0,0,0,2.839,3.38l-.725.792h0Zm27.582-4.365-.933-.53a16.7,16.7,0,0,0,1.654-4.09l1.04.267a17.756,17.756,0,0,1-1.76,4.353h0Zm-32.58-3.489h0a17.839,17.839,0,0,1-.793-4.628l1.073-.041a16.762,16.762,0,0,0,.745,4.35l-1.025.32Zm33.825-5.535h0a16.812,16.812,0,0,0-.632-4.366l1.033-.293a17.885,17.885,0,0,1,.672,4.646l-1.074.014Zm-33.133-3.55-1.046-.24a17.751,17.751,0,0,1,1.646-4.4l.947.506a16.668,16.668,0,0,0-1.547,4.132h0ZM54.022,9.214a16.867,16.867,0,0,0-2.75-3.452l.745-.773a17.937,17.937,0,0,1,2.926,3.672l-.92.553h0ZM27.4,6.364l-.783-.735a17.922,17.922,0,0,1,3.634-2.973l.565.913A16.864,16.864,0,0,0,27.4,6.364h0ZM47.719,3.143a16.684,16.684,0,0,0-4.111-1.6L43.862.5a17.751,17.751,0,0,1,4.376,1.7l-.519.94h0ZM34.839,1.762h0L34.533.733A17.862,17.862,0,0,1,39.171,0L39.2,1.074a16.777,16.777,0,0,0-4.359.688Z" transform="translate(37.286 26.09)" fill="#3c41ff"/>
        <path id="Rectangle_2" data-name="Rectangle 2" d="M3.349,0H53.506a4.564,4.564,0,0,1,3.869,6.985l-24.5,39.162a4.564,4.564,0,0,1-7.684.085L.116,8.056Q.056,7.964,0,7.87" transform="translate(95.253 170.498) rotate(180)" fill="#444" opacity="0.177"/>
      </g>
    </g>
    <g id="Man" transform="translate(1065.405 143.781)">
      <g id="Legs" transform="translate(23.955 75.591)">
        <path id="Base" d="M80.675,2.417a1.147,1.147,0,0,1-1.208-1.022V1.022A1.129,1.129,0,0,1,80.675,0h27.518A1.146,1.146,0,0,1,109.4,1.022v.372a1.129,1.129,0,0,1-1.208,1.022Zm-79.467,0A1.208,1.208,0,0,1,1.208,0H44.969a1.208,1.208,0,1,1,0,2.417Z" transform="translate(0 166.212)" fill="#de3190"/>
        <path id="Shoes" d="M43.77,16.868h0a1.225,1.225,0,0,0-.159-.01H.04A2.745,2.745,0,0,1,0,16.285c.01-.066.017-.133.025-.2a2.6,2.6,0,0,1,.066-.412,4.2,4.2,0,0,1,1.984-2.892,33.882,33.882,0,0,1,3.768-2.029C7.851,9.8,9.284,9.268,10.548,8.8a21.547,21.547,0,0,0,4.876-2.338,25.357,25.357,0,0,0,3.622-2.944C20.152,2.446,23.584.024,23.619,0l20.7.464-.547,16.4Zm63.212,0h0a1.347,1.347,0,0,0-.145-.008H79.409l2.17-13.7L100.8.557l6.18,16.306Z" transform="translate(1.358 149.355)" fill="#474961"/>
        <path id="Legs-2" data-name="Legs" d="M64.3,151.645a8.86,8.86,0,0,1-8.829-8.266l-.462-6.871c.071-1.623.122-2.979.156-4.145l-1.073-5.66c-.448-2.363-.879-4.637-1.259-6.641a27.773,27.773,0,0,1-3.183-8.51c-.346-1.626-.973-7.133-1.864-16.367-.688-7.136-1.3-14.064-1.364-14.831-.053-.349-.157-2.175-.161-2.252L43.411,64.92c-.267,1.774-.487,3.232-.692,4.589-.3,7.632-1.309,32.8-1.925,36.291a28.088,28.088,0,0,1-3.591,9.9,8.289,8.289,0,0,0-1.315,3.192,83.211,83.211,0,0,0,.42,12.036l-.221,6.883a8.869,8.869,0,0,1-6.37,8.221,4.329,4.329,0,0,1-3.034.924,34.9,34.9,0,0,1-4-.369c-2.119-.266-4.756-.6-8.22-.756-.014,0-1.472-.066-3.343-.278l-2.352-.123a8.831,8.831,0,0,1-3.845-1.1,5.581,5.581,0,0,1-2.408-1.367,5.064,5.064,0,0,1-.644-1.02,4.991,4.991,0,0,1-.228-.78A8.832,8.832,0,0,1,.4,137.2l-.35-5.006a12.6,12.6,0,0,1,.436-4.436,38.42,38.42,0,0,1,1.487-4.239,27.558,27.558,0,0,0,1.9-6.175,21.755,21.755,0,0,0,.205-5.021,22.774,22.774,0,0,0-.631-3.494c-.582-2.446-1.183-4.975-.243-10.628,1-6.04,2.632-13.461,4.837-22.057,1.721-6.709,3.25-11.993,3.678-13.453,1.841-13.029,3.44-23.336,4.888-31.51.9-5.079,1.757-9.411,2.548-12.875A63.426,63.426,0,0,1,21.6,9.669l.012-.033A49.283,49.283,0,0,1,26.33,0c.071.084.145.167.222.246a3.944,3.944,0,0,0,.886.7,4.628,4.628,0,0,0,1.094.549.078.078,0,0,1,.05.029c.021.006,2.182.661,5.6,1.3,2.021.376,4.091.676,6.153.891a74.012,74.012,0,0,0,7.642.405A59.581,59.581,0,0,0,61.357,2.67l.051-.025a4.632,4.632,0,0,0,1.13-.471,6,6,0,0,0,.933-.639,5.106,5.106,0,0,0,1-1.241c.417.929,1.081,2.5,1.878,4.726.894,2.5,1.775,5.3,2.616,8.321a231.945,231.945,0,0,1,5.831,29c.283,2.007.57,4.072.851,6.138l.04-.044c0,.021.032.152.081.384,1.937,9.228,8.467,40.383,11.188,53.825,1.137,5.617.624,8.165.128,10.63a22.771,22.771,0,0,0-.509,3.514,21.758,21.758,0,0,0,.38,5.011,27.562,27.562,0,0,0,2.109,6.1A38.418,38.418,0,0,1,90.7,132.09a12.6,12.6,0,0,1,.591,4.418l-.175,5.015a8.859,8.859,0,0,1-8.082,8.517l-17.954,1.571C64.823,151.634,64.559,151.645,64.3,151.645Z" transform="translate(9.859 4.779) rotate(-3)" fill="#4d64df"/>
        <path id="Shadow_Legs" data-name="Shadow Legs" d="M26.684,146.955a34.894,34.894,0,0,1-4-.369c-2.119-.266-4.756-.6-8.219-.756-.014,0-1.468-.066-3.343-.278L8.8,145.431a8.832,8.832,0,0,1-3.808-1.085,5.672,5.672,0,0,1-2.471-1.389,5.064,5.064,0,0,1-.644-1.02,5,5,0,0,1-.241-.846,8.829,8.829,0,0,1-1.21-3.9c-.172-2.487-.3-4.169-.377-5a12.6,12.6,0,0,1,.436-4.436,38.413,38.413,0,0,1,1.487-4.239,27.559,27.559,0,0,0,1.895-6.174,21.758,21.758,0,0,0,.205-5.021,22.777,22.777,0,0,0-.631-3.494c-.582-2.446-1.183-4.975-.243-10.628.852-5.123,2-10.709,3.413-16.6s3.13-12.255,5.1-18.916c1.841-13.027,3.439-23.333,4.888-31.507.9-5.078,1.757-9.409,2.548-12.874A63.422,63.422,0,0,1,21.6,9.669l.012-.033A49.272,49.272,0,0,1,26.33,0c.071.085.145.167.222.246a3.943,3.943,0,0,0,.886.7,4.588,4.588,0,0,0,1.094.549.078.078,0,0,1,.05.029s.426.13,1.177.325l6.924,32.094L43.4,65c-.227,1.507-.455,3.019-.678,4.495-.814,21.457-1.462,33.67-1.927,36.3a28.088,28.088,0,0,1-3.591,9.9,8.289,8.289,0,0,0-1.315,3.192,83.212,83.212,0,0,0,.42,12.036c.057.725.013,3.057-.13,6.931,0,.049,0,.093-.006.135a8.868,8.868,0,0,1-6.511,8.084A4.36,4.36,0,0,1,26.684,146.955Z" transform="translate(9.859 4.779) rotate(-3)" fill="#444" opacity="0.177"/>
      </g>
      <g id="Body" transform="translate(0 0)">
        <path id="T-shirt" d="M12.487,54.2a4.773,4.773,0,0,1-1.058-.4,5.635,5.635,0,0,1-1.131-.762c-2.288-2.108-2.252-6.973-2.222-8.156-.007-.376-.012-.671-.012-.671.029-2.478.018-8.529-.05-21.711-4.946-.6-9.036-2.024-7.786-5.2C3,10.244,4.836,3.478,15.825,2.7A20.715,20.715,0,0,1,23.516.764,22.746,22.746,0,0,1,25.943.721c.151,0,.354.021.734.041s.81.04,1.291.058q.72-.053,1.288-.1c.379-.034.555-.064.732-.067A22.946,22.946,0,0,1,32.415.608c.284.009.585.023.9.044Q33.553.6,33.8.545c11.3-2.438,14.867,3.734,19.453,9.94,1.832,2.48-.9,4.7-4.852,6.481q.068.644.131,1.351v.08l.073,1.314c.432,14.626.648,21.2.769,23.777a4.744,4.744,0,0,0,.012.671c.071,1.18.181,6.038-2.057,8.226a5.957,5.957,0,0,1-.9.687,4.592,4.592,0,0,1-1.1.529l-.05.028a62.163,62.163,0,0,1-17.036,2.243A71.772,71.772,0,0,1,12.487,54.2Z" transform="translate(50.062 26.225)" fill="#e84b4c"/>
        <path id="Shadow_T-shirt" data-name="Shadow T-shirt" d="M7.8,19.756c-4.121-.523-6.638-1.508-7.48-2.928a2.463,2.463,0,0,1-.09-2.249c.186-.474.371-.953.549-1.416,1.251-3.248,2.433-6.317,4.564-8.7A12.117,12.117,0,0,1,9.365,1.492,15.344,15.344,0,0,1,12.141.535,21.809,21.809,0,0,1,15.55,0a12.161,12.161,0,0,0-4.221,3.4A11.039,11.039,0,0,0,9.639,6.6c-.036.107-.072.209-.108.308s-.073.2-.109.313L9.395,7.3c-.182.493-.52,1.412-.814,2.41a36.451,36.451,0,0,0-.77,6.592v.08L7.785,17.7q.006,1.058.011,2.059Z" transform="translate(50.167 28.919)" fill="#444" opacity="0.177"/>
        <path id="Skin-2" data-name="Skin" d="M92.768,115.585l1.79-7.233a3.711,3.711,0,0,1-.357.251c-3.524-.591,1.515-13.644,3.017-17.339l-12.662-45.3c4.285-1,11.986-3.091,15.427-5.841,1.29,5.269,3.793,15.658,6.066,26.036,2.73,12.462,4.372,21.4,4.88,26.578a3.63,3.63,0,0,1,.313,1.436,30.305,30.305,0,0,1-.61,6.1c-.364,2-.888,4.292-1.558,6.809-1.135,4.27-2.322,7.791-2.334,7.826a16.23,16.23,0,0,1-2.411.974,20.483,20.483,0,0,1-5.549,1.056q-.265.009-.525.009A10.646,10.646,0,0,1,92.768,115.585ZM45.29,72.963a9.938,9.938,0,0,1-3.886-.635A12.994,12.994,0,0,1,39.121,71.2c-1.752-1.057-4.012-3.328-6.715-6.75-2.215-2.8-4.742-6.395-7.511-10.675-4.86-7.514-9.059-14.969-10.23-17.075a41.528,41.528,0,0,1-4.464-.88,29.23,29.23,0,0,1-4.633-1.59,13.033,13.033,0,0,1-4.7-3.15A3.114,3.114,0,0,1,0,28.95a1.383,1.383,0,0,1,.1-.483l23.168,1.5.064-.044L43.428,51.066a53.479,53.479,0,0,0,4.96-6.059c.945,1.363,3.5,2.305,7.6,2.8.047,9.062.068,14.925.065,18.453a26.672,26.672,0,0,1-4.4,4.4,13.022,13.022,0,0,1-3.4,1.931,6.8,6.8,0,0,1-2.188.443h-.071A2.866,2.866,0,0,1,45.29,72.963ZM69.8,29a.516.516,0,0,1-.392-.47l-.324-5.682q-.353.092-.753.192c-2.359.616-2.217.55-2.383.586a10.186,10.186,0,0,1-3.424-.036c-.953-.181-1.883-1.089-2.648-2.546A21.456,21.456,0,0,1,57.813,12.7a8.861,8.861,0,0,1-.009-1.459l.4-4.79a6.077,6.077,0,0,1,1.073-3.019,4.63,4.63,0,0,1,.807-1l.028-.029.034-.046C62.5-.277,66.836-.2,68.789.222c.238.052,1.081.249,2.3.458.662.124,1.2.18,1.514.24,3.961.578,5.587.263,7.477,1.542a6.036,6.036,0,0,1,1.808,1.81c1.832,2.865.965,6.229.725,7.23A12.347,12.347,0,0,1,79.238,16.9a17.655,17.655,0,0,1-1.712,1.7l.6,8.665a.5.5,0,0,1-.225.464,9.44,9.44,0,0,1-2.884,1.283,9.992,9.992,0,0,1-2.572.334A10.463,10.463,0,0,1,69.8,29Z" transform="translate(2.089 0.911)" fill="#f2a98a"/>
        <path id="Shadow_Skin" data-name="Shadow Skin" d="M.488,57.924A1.382,1.382,0,0,1,0,57.849L.281,34.634l-.048-.061L20.3,13.4a53.449,53.449,0,0,0-6.31-4.636c1.311-1.015,2.119-3.617,2.4-7.734C25.439.509,31.293.182,34.815,0a26.647,26.647,0,0,1,4.621,4.165,13.01,13.01,0,0,1,2.107,3.291A6.8,6.8,0,0,1,42.1,9.618a2.966,2.966,0,0,1-.029.777,9.939,9.939,0,0,1-.431,3.914,13,13,0,0,1-1,2.339c-.964,1.805-3.113,4.18-6.389,7.06-2.683,2.358-6.138,5.07-10.268,8.059C16.73,37.014,9.5,41.6,7.463,42.877a41.492,41.492,0,0,1-.645,4.5A29.206,29.206,0,0,1,5.472,52.09a13.032,13.032,0,0,1-2.9,4.86A3.114,3.114,0,0,1,.488,57.924Z" transform="translate(60.049 32.405) rotate(93)" fill="#8c2a00" opacity="0.2"/>
        <path id="Shadow" d="M0,1.123,4,0,.591,4.828Z" transform="matrix(0.999, -0.035, 0.035, 0.999, 70.703, 22.73)" fill="#482d1f"/>
        <path id="Hair" d="M.281,10.847a.352.352,0,0,1-.192-.581,1.85,1.85,0,0,1,1.184-.492c1.1-.058,2.317.6,1.1.991a3.916,3.916,0,0,1-1.159.156A6.159,6.159,0,0,1,.281,10.847ZM6.068,7.081a16.707,16.707,0,0,1-3.494-3.06,2.275,2.275,0,0,0-.455-.454c.05-.071.1-.137.148-.2a3.448,3.448,0,0,0,.2-.283A7.105,7.105,0,0,1,6.044.623,12.571,12.571,0,0,1,9.952,0,9.785,9.785,0,0,1,10.98.05l.192.021c.375.041,1.154.128,2.2.194.4.031.756.044,1.039.055.205.008.382.014.518.026.643.025,1.276.037,1.99.037.356,0,.69,0,1.03-.006h.06c.3,0,.584-.006.852-.006a12.434,12.434,0,0,1,2.015.124,5.764,5.764,0,0,1,1.784.6,6.052,6.052,0,0,1,2.013,1.611,7.591,7.591,0,0,1,1.258,2.2,8.271,8.271,0,0,1,.47,2.123,7.6,7.6,0,0,1-.225,2.792,2.864,2.864,0,0,1-.537.94c-.465-.021-.932-.031-1.426-.031-.986,0-1.931.043-2.644.079a3.582,3.582,0,0,0-.655-1.875,3.741,3.741,0,0,0-2.931-1.58,2.611,2.611,0,0,0-.828.13,3.026,3.026,0,0,0-1.241.837l-.021.022a4.607,4.607,0,0,0-.886,1.879l-.065.637h0A29.814,29.814,0,0,1,6.068,7.081Zm-.254,3.665a.338.338,0,0,1-.165-.583A1.873,1.873,0,0,1,6.86,9.669c1.1-.058,2.318.631,1.1.991a3.7,3.7,0,0,1-1.161.169A6.42,6.42,0,0,1,5.814,10.745Z" transform="matrix(0.995, 0.105, -0.105, 0.995, 60.065, 0)" fill="#482d1f"/>
        <path id="Eyes" d="M.078.625c.116-.356.3-.419.517-.4a.666.666,0,0,1,.571.642,2.8,2.8,0,0,1-.3,1.494.26.26,0,0,1-.184.083C.273,2.441-.186,1.36.078.625ZM4.827.456C4.917.1,5.1.012,5.314,0a.639.639,0,0,1,.648.558A2.613,2.613,0,0,1,5.8,2.1a.248.248,0,0,1-.2.105C5.2,2.2,4.638,1.2,4.827.456Z" transform="matrix(0.995, 0.105, -0.105, 0.995, 60.135, 11.823)" fill="#482d1f"/>
        <path id="Mouth" d="M1.745.78C1.933.726,2.389.592,2.47.3c0-.054.027-.134,0-.188C2.363-.079,2.04.028,1.557.055A9.806,9.806,0,0,1,0,.028a3.493,3.493,0,0,0,.322.7C.591,1.129,1.45.86,1.745.78Z" transform="translate(61.818 17.512) rotate(3)" fill="#482d1f"/>
        <path id="Nose" d="M.608,5.349.5,5.339a.589.589,0,0,1-.49-.651l.4-2.854V.268a.269.269,0,0,1,.537,0V1.853l0,.037-.4,2.879c0,.005.023.036.024.037l.087.007c.44.034.71.046,1.181.046a.268.268,0,1,1,0,.537C1.344,5.4,1.061,5.383.608,5.349Z" transform="translate(61.669 11.026) rotate(3)" fill="#482d1f"/>
        <path id="Shadow-2" data-name="Shadow" d="M2.366.31A3.89,3.89,0,0,1,1.99,2.642,3.536,3.536,0,0,1,.156,4.347a.268.268,0,0,0,.225.488,4.514,4.514,0,0,0,.941-.562A4.007,4.007,0,0,0,2.468,2.885,4.424,4.424,0,0,0,2.9.227.268.268,0,1,0,2.366.31Z" transform="matrix(0.995, 0.105, -0.105, 0.995, 78.047, 12.037)" fill="#482d1f"/>
        <path id="Fingers" d="M.326,11.486a.4.4,0,0,1-.318-.472c.267-1.371.509-2.43,1.073-4.782s.8-3.392,1.066-4.748a.4.4,0,1,1,.791.154c-.267,1.371-.509,2.43-1.073,4.782S1.062,9.811.8,11.168a.4.4,0,0,1-.472.318Zm5.07-.291a.4.4,0,0,1-.288-.491c.383-1.474.655-2.624,1.239-5.189S7.205,1.786,7.591.3a.4.4,0,1,1,.779.2c-.383,1.474-.655,2.624-1.239,5.189s-.859,3.728-1.245,5.213a.4.4,0,0,1-.491.288Z" transform="translate(98.735 106.438)" fill="#482d1f"/>
      </g>
    </g>
    <g id="Icon" transform="translate(1064 144.567)">
      <g id="Group_9" data-name="Group 9" transform="translate(-0.145)">
        <g id="Group_11" data-name="Group 11">
          <ellipse id="Oval" cx="17.182" cy="17.316" rx="17.182" ry="17.316" transform="translate(0.145)" fill="#474bff"/>
          <g id="shopping-cart" transform="translate(8.575 9.863)">
            <rect id="Rectangle_50" data-name="Rectangle 50" width="18" height="18" transform="translate(-0.43 -0.43)" fill="#f2f6fb" opacity="0"/>
            <path id="Path_62" data-name="Path 62" d="M15.627,5.857a1.428,1.428,0,0,0-1.214-.714H5.271L4.857,3.528A.714.714,0,0,0,4.143,3H2.714a.714.714,0,1,0,0,1.428H3.6l1.971,7.328a.714.714,0,0,0,.714.529h6.428a.714.714,0,0,0,.636-.393l2.343-4.685A1.428,1.428,0,0,0,15.627,5.857Z" transform="translate(-0.572 -0.857)" fill="#f2f6fb"/>
            <circle id="Ellipse_18" data-name="Ellipse 18" cx="1" cy="1" r="1" transform="translate(4.57 12.57)" fill="#f2f6fb"/>
            <circle id="Ellipse_19" data-name="Ellipse 19" cx="1" cy="1" r="1" transform="translate(11.57 12.57)" fill="#f2f6fb"/>
          </g>
        </g>
      </g>
    </g>
    <g id="Chair_1" data-name="Chair / 1" transform="translate(888.274 249.47)">
      <g id="Chair_" data-name="Chair " transform="translate(0.142 0.019)">
        <path id="Combined_Shape-2" data-name="Combined Shape" d="M86.118.535,54.68,58.283H33.739L2.3.535A1.162,1.162,0,0,0,.744.159L.637.213A1.179,1.179,0,0,0,.127,1.77l8.4,15.41q7.651,14.014,15.249,28l7.142,13.1H4.047a1.2,1.2,0,0,0-1.208,1.181V59.6A1.215,1.215,0,0,0,4.047,60.78H76.606l2.263,18.31q2.336,18.685,4.644,37.425l2.551,20.618a1.281,1.281,0,0,0,1.369,1.181l.134-.027a1.269,1.269,0,0,0,1.02-1.423L79,59.652q-.01-.07-.027-.138v-.05a1.215,1.215,0,0,0-1.208-1.181H57.5l7.142-13.1q7.651-14.014,15.249-28l8.4-15.41a1.179,1.179,0,0,0-.51-1.557L87.675.159a1.21,1.21,0,0,0-.6-.159A1.068,1.068,0,0,0,86.118.535Z" transform="translate(88.597 138.322) rotate(180)" fill="#d8deed"/>
      </g>
    </g>
    <g id="Woman_sitting_8" data-name="Woman sitting / 8" transform="translate(872.181 176.919)">
      <g id="Woman" transform="translate(0 0)">
        <g id="Legs-3" data-name="Legs" transform="translate(27.472 111.078)">
          <path id="Shoes-2" data-name="Shoes" d="M41.7,34.12h0a1.2,1.2,0,0,0-.542-.129H26.642L0,14.141,10.1,0,26.257,11.732c.674,2.289,1.377,4.62,2.057,6.875q.327,1.084.655,2.172c.484,1.587.975,3.169,1.45,4.7,1.386.545,2.7,1.088,3.7,1.53a30.386,30.386,0,0,1,4.833,2.5A7.767,7.767,0,0,1,41.13,31.6a5.477,5.477,0,0,1,.59,1.342,2.6,2.6,0,0,1,.059.411c.006.073.013.142.022.208a2.7,2.7,0,0,1-.1.56Zm50.285-.044h0a1.213,1.213,0,0,0-.274-.031H48.488a1.219,1.219,0,0,0-.237.023L47.832,17.33l20.3-.058.005,0a51.561,51.561,0,0,1,4.836,3.51,25.358,25.358,0,0,0,3.623,2.944,21.535,21.535,0,0,0,4.876,2.339c1.264.473,2.7,1.008,4.7,1.951a33.7,33.7,0,0,1,3.767,2.029,4.2,4.2,0,0,1,1.984,2.892,2.6,2.6,0,0,1,.066.407c.008.073.015.142.026.21a2.935,2.935,0,0,1-.03.518Z" transform="translate(14.771 63.571)" fill="#474961"/>
          <path id="Base-2" data-name="Base" d="M50.475,22.58a1.208,1.208,0,1,1,0-2.416H93.7a1.208,1.208,0,0,1,0,2.416Zm-22.23,0a1.208,1.208,0,0,1-.727-.241c-.026-.017-.052-.035-.077-.054L.485,2.2A1.235,1.235,0,0,1,.244.485,1.235,1.235,0,0,1,1.962.244L28.628,20.111H43.145a1.235,1.235,0,1,1,0,2.47Z" transform="translate(12.917 77.422)" fill="#4d64df"/>
          <path id="Legs-4" data-name="Legs" d="M56.423,83.069a3.912,3.912,0,0,1-.627-2.416l-.546-5.767v-.058c-3.489,4.173-5.762,6.879-5.762,6.879s-4.443,1.319-13.442-3.779a69.752,69.752,0,0,1-13.93-10.05c-1.584-1.02-5.439-6.662-4.419-8.139l6.739-9.826,4.027-5.88c1.127-1.664,1.979-2.768,3.187-4.513,0-.027.216-.346.216-.373-.429,0,.06-.349-3-.376S9.322,38.4,3.012,29.294C.5,25.664.3,21.643.113,19.844A22.115,22.115,0,0,1,5.651,2.83a13.478,13.478,0,0,1,2.6-1.537c.886-.268,5.557-.4,6.47-.456L33.457.595S73.862.058,73.969,0s11.689.43,14.8,2.228c5.965,3.495,9.1,14.508,3.215,27.087-.5,2.634-.922,5.529-1.25,8.607-.336,3.151-.56,6.344-.663,9.49-.109,3.307-.082,6.449.081,9.34a58.593,58.593,0,0,0,.975,8.191c0,.038.473,3.893.8,7.837.192,2.324.3,4.233.316,5.672.022,1.8-.094,2.868-.347,3.176a.229.229,0,0,1-.158.094c-.182.014-1.283.065-2.348.115h0c-.966.045-1.879.087-2.063.1-3.259.216-7.386.511-11.378.795C68.092,83.3,59.97,83.874,58.3,83.874A2.247,2.247,0,0,1,56.423,83.069ZM91.481,30.339a.629.629,0,0,0,.04-.068h0Z" transform="translate(0 0)" fill="#fd9d3a"/>
          <path id="Shadow_Leg" data-name="Shadow Leg" d="M3.054,83.709A2.247,2.247,0,0,1,1.173,82.9a3.912,3.912,0,0,1-.627-2.416L0,74.721C5.915,67.645,14.51,57.33,21.867,48.365c9.008-10.977,13.87-17.135,14.451-18.3.139-.28.276-.565.408-.847-.5,2.617-.913,5.493-1.239,8.549-.336,3.149-.559,6.342-.663,9.49-.109,3.306-.082,6.448.081,9.34a58.593,58.593,0,0,0,.975,8.191c0,.035.476,3.923.8,7.837.192,2.325.3,4.233.316,5.672.022,1.8-.094,2.868-.347,3.176a.229.229,0,0,1-.158.094c-.175.013-1.211.062-2.348.115h0l-.108.005h-.024c-.9.042-1.755.082-1.931.094-3.262.217-7.388.511-11.377.795l-.065,0h0C12.8,83.133,4.714,83.709,3.054,83.709ZM10.659.065h-.016L10.277,0h.043l.339.064Z" transform="translate(55.203 0.211)" fill="#8c2a00" opacity="0.2"/>
          <path id="Shadow-3" data-name="Shadow" d="M12.331.241c-1.325,2-2.72,3.95-6.107,8.584-3.4,4.649-4.8,6.6-6.136,8.625a.537.537,0,0,0,.9.592c1.325-2,2.72-3.95,6.107-8.584,3.4-4.649,4.8-6.6,6.136-8.625a.537.537,0,1,0-.9-.592Z" transform="translate(31.712 20.998)" fill="#482d1f"/>
        </g>
        <g id="Body-2" data-name="Body" transform="matrix(0.788, 0.616, -0.616, 0.788, 67.559, 0)">
          <g id="Brush" transform="translate(72.051 8.427)">
            <path id="Rectangle" d="M0,2.147A2.275,2.275,0,0,1,2.094,0h0A2.275,2.275,0,0,1,4.187,2.147L3.745,19.6a1.813,1.813,0,0,1-1.652,1.61h0A1.813,1.813,0,0,1,.442,19.6Z" transform="translate(3.484 11.513)" fill="#474961"/>
            <path id="Oval-2" data-name="Oval" d="M5.369,14.832A5.317,5.317,0,0,0,10.739,9.57c0-1.4-2.356-2.468-4.217-5.333L5.536.2a.268.268,0,0,0-.5-.063L0,9.57A5.317,5.317,0,0,0,5.369,14.832Z" transform="translate(0.116 0.292)" fill="#f2f6fb"/>
            <path id="Paint" d="M5.5,11.021c.7,0,1.435-1.988,2-1.691,1.9.995,3.5,3.092,3.5.738,0-1.469-2.415-2.595-4.322-5.606L5.67.206a.268.268,0,0,0-.5-.062L0,10.068c0,1.758,1.127,1.79,2.566.953.5-.293.393-1.067.937-1.691C4.107,8.636,4.824,11.021,5.5,11.021Z" transform="translate(0 0)" fill="#474bff"/>
          </g>
          <path id="Shirt" d="M.8,51.118A7.136,7.136,0,0,1,.152,46.3l5.6-31.289A14.724,14.724,0,0,1,22.634,2.991a2,2,0,0,1,.037-.582l.117-.552A2,2,0,0,1,25.16.316l5.016,1.067a2,2,0,0,1,1.541,2.372l-.117.552a2.01,2.01,0,0,1-.137.416,14.7,14.7,0,0,1,9.7,16.425l-5.6,31.644-31,.555S1.891,52.869.8,51.118Z" transform="matrix(0.788, -0.616, 0.616, 0.788, 8.83, 67.697)" fill="#4d64df"/>
          <path id="Skin-3" data-name="Skin" d="M57.77,75.582c.035-.179-.294-.476-.977-.883a42.525,42.525,0,0,0-4.73-2.24c-3.986-1.679-8.051-3.1-10.759-4s-4.615-1.462-4.968-1.565l-.009,0-.071-5.216-.774.247q.875-.28,1.744-.563c4.365-1.421,8.662-2.872,13.326-4.487,1.571-.528,2.246-.794,3.374-1.22,3.677-1.4,17.515-6.784,18.182-7.3,2.332-.952.957-9.223,1.009-12.235,0,0-5.8,2.43-15.929,6.2a10.941,10.941,0,0,0-3.07,2.305c-1.142.066-10.28,1.492-18.7,2.751l.676-.1a22.32,22.32,0,0,0-.251-3.16A22.013,22.013,0,0,0,34.1,38.263a14.769,14.769,0,0,1,.049,5.831l-.7,3.577c-4.931.73-9.363,1.357-11.443,1.557-.167-.512-2.562-12.067-2.562-12.067L3.363,41.383S3.856,44.7,5.821,52.029,8.5,64.821,13.944,66.512c1.269.4,2.924.367,6.611-.457,3.47-.775,6.7-1.638,9.8-2.553L27.995,75.6h-.011l.006.036h0l29.452.1h0C57.453,75.74,57.741,75.731,57.77,75.582ZM11.414,34.666c5.558-1.863,5.767-8.7,5.767-8.7a16.108,16.108,0,0,0-10.141.622A13.025,13.025,0,0,0,0,33.872a19.213,19.213,0,0,0,6.853,1.454l.279,0A13.46,13.46,0,0,0,11.414,34.666Zm13.86-12.431.351.137a24.129,24.129,0,0,0,2.282.886,11.319,11.319,0,0,0,3.41.4c2.255-.161,4.886-4.269,6.067-10.2a13.341,13.341,0,0,0,.188-1.45L37.787,7.2a5.851,5.851,0,0,0-.671-3.087,6.707,6.707,0,0,0-.671-1.074C33.679-.663,28.578.008,27.665.115c-.108,0-.215.027-.322.027a10.508,10.508,0,0,1-2.9.027.821.821,0,0,0-.806.779L23.5,7.821c-.027.644-1.861-.858-2.586-.912C19.63,6.8,18.188,8.787,17.705,10.1a3.76,3.76,0,0,0,.725,3.812c.052.057.106.112.159.164-.221,1.9-1,8.586-1.06,8.661s7.269,1.7,7.269,1.7Z" transform="translate(0 46.239) rotate(-39)" fill="#db9e75"/>
          <path id="Shadow-4" data-name="Shadow" d="M2.2,3.264,0,0,2.657,1.219Z" transform="translate(30.805 48.338) rotate(-39)" fill="#482d1f"/>
          <path id="Eyes-2" data-name="Eyes" d="M.265,2.3A2.25,2.25,0,0,1,.024.781a.661.661,0,0,1,.6-.607c.214-.015.409.079.516.448.212.722-.3,1.772-.7,1.772A.235.235,0,0,1,.265,2.3Zm4.778-.173c-.29-.3-.262-1.058-.241-1.517A.661.661,0,0,1,5.406,0c.214-.015.409.079.516.448.212.722-.3,1.772-.7,1.772A.235.235,0,0,1,5.043,2.126Z" transform="matrix(0.788, -0.616, 0.616, 0.788, 31.508, 35.729)" fill="#482d1f"/>
          <path id="Mouth-2" data-name="Mouth" d="M.737.793C.549.739.092.578.012.283.012.229-.015.149.012.1.119-.066.468.015.952.068a8.338,8.338,0,0,0,1.557,0A3.241,3.241,0,0,1,2.16.739C1.891,1.169,1.032.874.737.793Z" transform="translate(35.556 39.366) rotate(-42)" fill="#482d1f"/>
          <path id="Hair-2" data-name="Hair" d="M9.269,18.406a2.473,2.473,0,0,0,.979-.455,5.3,5.3,0,0,0,.845-.7,6.113,6.113,0,0,0,1.132-1.6,7.025,7.025,0,0,0,.3-.688,3.805,3.805,0,0,1-1.733-1.24,3.916,3.916,0,0,1-.762-1.747,3.49,3.49,0,0,1,.26-2.016,3.614,3.614,0,0,1,1.256-1.523,2.917,2.917,0,0,1,1.783-.556c.063,0,.126.009.188.018a2.851,2.851,0,0,1,1.328.572l.012.009a4.356,4.356,0,0,1,1.18,1.594l.474,1.5A20.314,20.314,0,0,0,19.9,8c1.375-1.663,2.634-3.319,2.687-3.389.012,0,2.359-.118,3.612-.137.39-.006.781.012,1.042.025l.458.026h.034l.438.026a3.836,3.836,0,0,0,1.17-.046l-.058.119-.035.073-.036.073c.1-.152.154-.237.154-.237.018-.046-.118-.217-.228-.353a.878.878,0,0,1-.146-.2,7.579,7.579,0,0,0-3.67-2.9A11.559,11.559,0,0,0,21.734.325a8.836,8.836,0,0,0-1,0c-.034,0-.069,0-.1,0h0c-.033,0-.071,0-.108,0A.444.444,0,0,1,20.417.3c-1.37.075-2.533.049-3.382.03H17.02l-.234,0C16.495.32,16.2.307,15.911.292c-.8-.042-1.48-.1-2.059-.148L13.646.127c-.53-.045-.987-.085-1.42-.107A6.576,6.576,0,0,0,9.035.488a6.126,6.126,0,0,0-2.12,1.475A6.908,6.908,0,0,0,5.69,3.749,5.1,5.1,0,0,0,.567,6.7C-.966,9.8.839,12.845,3.257,14.2A6.146,6.146,0,0,0,8.172,18.5q.13.009.259.009A3.461,3.461,0,0,0,9.269,18.406Zm15.488-7.277a.323.323,0,0,0,.161-.564,1.947,1.947,0,0,0-1.208-.51c-1.1-.054-2.309.618-1.128.966a3.773,3.773,0,0,0,1.223.185A6.445,6.445,0,0,0,24.757,11.129Zm5.208,0a.337.337,0,0,0,.188-.564,1.936,1.936,0,0,0-1.181-.51c-1.1-.054-2.309.591-1.128.966a3.584,3.584,0,0,0,1.2.185A6,6,0,0,0,29.966,11.129Z" transform="translate(6.065 42.149) rotate(-42)" fill="#482d1f"/>
          <path id="Nose-2" data-name="Nose" d="M1.488,5.348,1.6,5.339a.614.614,0,0,0,.493-.614l0-.03-.32-2.853L1.825.278A.268.268,0,0,0,1.289.259L1.235,1.843v.039l.32,2.853c0,.04-.026.071-.02.071l-.084.006c-.268.017-.466.02-1.184.02a.268.268,0,1,0,0,.537C1,5.369,1.2,5.367,1.488,5.348Z" transform="translate(32.217 34.155) rotate(-42)" fill="#482d1f"/>
          <path id="Shadow-5" data-name="Shadow" d="M0,2.5.267.354a.4.4,0,1,1,.8.1L.8,2.6A.4.4,0,0,1,0,2.5Z" transform="translate(36.387 61.144) rotate(-45)" fill="#482d1f"/>
          <path id="Shadow_Arms" data-name="Shadow Arms" d="M2.16,25.3l5.869-1.93.163,5.213s14.375,4.308,20.14,7.166a8.016,8.016,0,0,1,1.442.823s.118.11.186.191c.11.131,0,.267-.349.291S0,37.448,0,37.448ZM5.468,6.61a19.553,19.553,0,0,0,.36-2.735A23.642,23.642,0,0,0,5.468,0,25.92,25.92,0,0,1,6.831,3.666,25.374,25.374,0,0,1,7.6,8.977l-2.632.43S5.33,7.455,5.468,6.61Z" transform="matrix(0.788, -0.616, 0.616, 0.788, 46.275, 57.88)" fill="#8c2a00" opacity="0.2"/>
        </g>
      </g>
    </g>
  </g>
</svg>
